<?xml version="1.0" encoding="UTF-8"?>
<svg width="16px" height="16px" viewBox="0 0 16 16" version="1.1" xmlns="http://www.w3.org/2000/svg" xmlns:xlink="http://www.w3.org/1999/xlink">
    <title>icon/搜索</title>
    <g id="资源管理" stroke="none" stroke-width="1" fill="none" fill-rule="evenodd">
        <g id="01物资分类" transform="translate(-442.000000, -131.000000)">
            <g id="内容列表" transform="translate(216.000000, 52.000000)">
                <g id="搜索" transform="translate(12.000000, 71.000000)">
                    <g id="icon/搜索" transform="translate(214.000000, 8.000000)">
                        <rect id="矩形" x="0" y="0" width="15.3333333" height="16"></rect>
                        <path d="M7.33333333,1.42 C10.5572348,1.42 13.1666667,4.08162049 13.1666667,7.36 C13.1666667,8.86710628 12.6152051,10.2438704 11.7060975,11.2916291 L14.9860097,14.4833354 C15.1839195,14.6759135 15.1882419,14.9924665 14.9956638,15.1903763 C14.8244834,15.3662962 14.5553474,15.389258 14.3586543,15.2569351 L14.288623,15.2000305 L10.9886456,11.9895122 C9.98883031,12.8091967 8.71773597,13.3 7.33333333,13.3 C4.10943185,13.3 1.5,10.6383795 1.5,7.36 C1.5,4.08162049 4.10943185,1.42 7.33333333,1.42 Z M7.33333333,2.42 C4.66619748,2.42 2.5,4.62952143 2.5,7.36 C2.5,10.0904786 4.66619748,12.3 7.33333333,12.3 C10.0004692,12.3 12.1666667,10.0904786 12.1666667,7.36 C12.1666667,4.62952143 10.0004692,2.42 7.33333333,2.42 Z" id="形状结合" fill="#9CA3AC" fill-rule="nonzero"></path>
                    </g>
                </g>
            </g>
        </g>
    </g>
</svg>