<?xml version="1.0" encoding="UTF-8"?>
<svg width="20px" height="20px" viewBox="0 0 20 20" version="1.1" xmlns="http://www.w3.org/2000/svg" xmlns:xlink="http://www.w3.org/1999/xlink">
    <title>矩形</title>
    <g id="01监测预警" stroke="none" stroke-width="1" fill="none" fill-rule="evenodd">
        <g id="03监测预警-传染病监测-发布任务" transform="translate(-667.000000, -183.000000)" fill="#73787F" fill-rule="nonzero">
            <g id="新建报表" transform="translate(280.000000, 66.000000)">
                <g id="编组-4备份-6" transform="translate(18.000000, 111.000000)">
                    <g id="编组-3" transform="translate(369.000000, 6.000000)">
                        <path d="M5.04541594,13.8864712 L5.3760797,14.7056534 C4.54494629,15.0411412 4.02455056,15.431996 3.90586279,15.7616643 C3.81384862,16.0172437 4.20882241,16.387819 5.21374657,16.7215597 C6.37692683,17.1078581 8.08464734,17.3322573 10,17.3322573 C11.9153527,17.3322573 13.6230732,17.1078581 14.7862534,16.7215597 C15.7911776,16.387819 16.1861514,16.0172437 16.0941372,15.7616643 C15.9848524,15.4581137 15.5347999,15.1025338 14.8148794,14.786115 L14.629318,14.707879 L14.9606313,13.8889593 C16.00063,14.3097153 16.6996182,14.835532 16.9253127,15.462423 C17.2517751,16.3692083 16.4856213,17.0880349 15.0646827,17.5599362 C13.8020002,17.9792798 12.0031122,18.2156587 10,18.2156587 C7.99688783,18.2156587 6.1979998,17.9792798 4.93531728,17.5599362 C3.51437866,17.0880349 2.74822489,16.3692083 3.07468734,15.462423 C3.28574317,14.8761923 3.910705,14.3782867 4.84135214,13.972105 L5.04541594,13.8864712 Z M10.0225935,1.82081551 C13.4230154,1.82081551 16.179602,4.57740211 16.179602,7.97782401 C16.179602,10.2447719 14.1272659,13.1862187 10.0225935,16.8021644 C5.9179212,13.1862187 3.86558504,10.2447719 3.86558504,7.97782401 C3.86558504,4.57740211 6.62217164,1.82081551 10.0225935,1.82081551 Z M10.0225935,5.81148994 C8.64188166,5.81148994 7.52259354,6.93077806 7.52259354,8.31148994 C7.52259354,9.69220181 8.64188166,10.8114899 10.0225935,10.8114899 C11.4033054,10.8114899 12.5225935,9.69220181 12.5225935,8.31148994 C12.5225935,6.93077806 11.4033054,5.81148994 10.0225935,5.81148994 Z" id="形状结合"></path>
                    </g>
                </g>
            </g>
        </g>
    </g>
</svg>