<?xml version="1.0" encoding="UTF-8"?>
<svg width="21px" height="21px" viewBox="0 0 21 21" version="1.1" xmlns="http://www.w3.org/2000/svg" xmlns:xlink="http://www.w3.org/1999/xlink">
    <title>矩形</title>
    <g id="01监测预警" stroke="none" stroke-width="1" fill="none" fill-rule="evenodd">
        <g id="02监测预警-预警规则设置-编辑" transform="translate(-987.000000, -329.000000)" fill="#73787F" fill-rule="nonzero">
            <g id="编组-16" transform="translate(987.528634, 329.500000)">
                <path d="M13.1482256,2.51453595 L13.1478658,5.09853595 L16.8598961,5.09876315 L16.8598961,6.0511441 L15.0028658,6.05053595 L15.0036209,17.2131392 L5.01926544,17.2131392 L5.01886584,6.05053595 L3.24486584,6.0511441 L3.24486584,5.09876315 L6.79386584,5.09853595 L6.79454478,2.51453595 L13.1482256,2.51453595 Z M14.0498658,6.05053595 L5.97086584,6.05053595 L5.97139822,16.3058938 L14.0504458,16.3058938 L14.0498658,6.05053595 Z M8.64994016,7.71092567 L8.64994016,14.6216265 L7.74227148,14.6216265 L7.74227148,7.71092567 L8.64994016,7.71092567 Z M10.4652775,9.43860086 L10.4652775,14.6216265 L9.55760885,14.6216265 L9.55760885,9.43860086 L10.4652775,9.43860086 Z M12.2806149,7.71092567 L12.2806149,14.6216265 L11.3729462,14.6216265 L11.3729462,7.71092567 L12.2806149,7.71092567 Z M12.1952077,3.42154007 L7.74663631,3.42154007 L7.74663631,5.0623564 L12.1952077,5.0623564 L12.1952077,3.42154007 Z" id="形状结合"></path>
            </g>
        </g>
    </g>
</svg>