<?xml version="1.0" encoding="UTF-8"?>
<svg width="16px" height="16px" viewBox="0 0 16 16" version="1.1" xmlns="http://www.w3.org/2000/svg" xmlns:xlink="http://www.w3.org/1999/xlink">
    <title>切片</title>
    <g id="PC端" stroke="none" stroke-width="1" fill="none" fill-rule="evenodd">
        <g id="B02-02-监测预警-新增规则" transform="translate(-1092.000000, -309.000000)">
            <g id="编组-13" transform="translate(260.000000, 225.000000)">
                <g id="编组-4" transform="translate(24.000000, 65.000000)">
                    <g id="编组-3备份-2" transform="translate(808.000000, 16.000000)">
                        <g id="16_icons/delete-fill" transform="translate(0.000000, 3.000000)">
                            <rect id="Rectangle" fill="#2D3040" fill-rule="nonzero" opacity="0" x="0" y="0" width="16" height="16"></rect>
                            <path d="M10.875,7.5 C10.94375,7.5 11,7.55625 11,7.625 L11,8.375 C11,8.44375 10.94375,8.5 10.875,8.5 L8.5,8.5 L8.5,10.875 C8.5,10.94375 8.44375,11 8.375,11 L7.625,11 C7.55625,11 7.5,10.94375 7.5,10.875 L7.5,8.5 L5.125,8.5 C5.05625,8.5 5,8.44375 5,8.375 L5,7.625 C5,7.55625 5.05625,7.5 5.125,7.5 L7.5,7.5 L7.5,5.125 C7.5,5.05625 7.55625,5 7.625,5 L8.375,5 C8.44375,5 8.5,5.05625 8.5,5.125 L8.5,7.5 L10.875,7.5 Z M8,1 C11.865625,1 15,4.134375 15,8 C15,11.865625 11.865625,15 8,15 C4.134375,15 1,11.865625 1,8 C1,4.134375 4.134375,1 8,1 Z M8,13.8125 C11.209375,13.8125 13.8125,11.209375 13.8125,8 C13.8125,4.790625 11.209375,2.1875 8,2.1875 C4.790625,2.1875 2.1875,4.790625 2.1875,8 C2.1875,11.209375 4.790625,13.8125 8,13.8125 Z" id="Shape" fill="#4A81FE"></path>
                        </g>
                    </g>
                </g>
            </g>
        </g>
    </g>
</svg>