<?xml version="1.0" encoding="UTF-8"?>
<svg width="16px" height="16px" viewBox="0 0 16 16" version="1.1" xmlns="http://www.w3.org/2000/svg" xmlns:xlink="http://www.w3.org/1999/xlink">
    <title>切片</title>
    <g id="PC端" stroke="none" stroke-width="1" fill="none" fill-rule="evenodd">
        <g id="B02-02-监测预警-新增规则" transform="translate(-1056.000000, -348.000000)">
            <g id="编组-13" transform="translate(260.000000, 225.000000)">
                <g id="编组-4" transform="translate(24.000000, 65.000000)">
                    <g id="编组-3备份" transform="translate(772.000000, 55.000000)">
                        <g id="16_icons/delete-fill" transform="translate(0.000000, 3.000000)">
                            <rect id="Rectangle" fill="#2D3040" fill-rule="nonzero" opacity="0" x="0" y="0" width="16" height="16"></rect>
                            <path d="M5.625,2.875 L5.5,2.875 C5.56875,2.875 5.625,2.81875 5.625,2.75 L5.625,2.875 L10.375,2.875 L10.375,2.75 C10.375,2.81875 10.43125,2.875 10.5,2.875 L10.375,2.875 L10.375,4 L11.5,4 L11.5,2.75 C11.5,2.1984375 11.0515625,1.75 10.5,1.75 L5.5,1.75 C4.9484375,1.75 4.5,2.1984375 4.5,2.75 L4.5,4 L5.625,4 L5.625,2.875 Z M13.5,4 L2.5,4 C2.2234375,4 2,4.2234375 2,4.5 L2,5 C2,5.06875 2.05625,5.125 2.125,5.125 L3.06875,5.125 L3.4546875,13.296875 C3.4796875,13.8296875 3.9203125,14.25 4.453125,14.25 L11.546875,14.25 C12.08125,14.25 12.5203125,13.83125 12.5453125,13.296875 L12.93125,5.125 L13.875,5.125 C13.94375,5.125 14,5.06875 14,5 L14,4.5 C14,4.2234375 13.7765625,4 13.5,4 Z M11.4265625,13.125 L4.5734375,13.125 L4.1953125,5.125 L11.8046875,5.125 L11.4265625,13.125 Z" id="Shape" fill="#E5302F"></path>
                        </g>
                    </g>
                </g>
            </g>
        </g>
    </g>
</svg>