<?xml version="1.0" encoding="UTF-8"?>
<svg width="24px" height="24px" viewBox="0 0 24 24" version="1.1" xmlns="http://www.w3.org/2000/svg" xmlns:xlink="http://www.w3.org/1999/xlink">
    <title>切片</title>
    <g id="07-医疗机构紧急救援" stroke="none" stroke-width="1" fill="none" fill-rule="evenodd">
        <g id="001-工作台" transform="translate(-976.000000, -550.000000)">
            <g id="事件列表" transform="translate(16.000000, 386.000000)">
                <g id="1.通用/2.Icon图标/Fill/Right-Selected" transform="translate(960.000000, 164.000000)">
                    <rect id="Rectangle" fill="#4A81FE" x="0" y="0" width="24" height="24" rx="2"></rect>
                    <g id="right" transform="translate(4.000000, 4.000000)">
                        <rect id="矩形" fill="#000000" fill-rule="nonzero" opacity="0" x="0" y="0" width="16" height="16"></rect>
                        <path d="M11.9640625,7.60625 L4.9203125,2.1046875 C4.8375,2.040625 4.71875,2.0984375 4.71875,2.203125 L4.71875,3.4109375 C4.71875,3.4875 4.7546875,3.5609375 4.8140625,3.6078125 L10.4390625,8 L4.8140625,12.3921875 C4.753125,12.4390625 4.71875,12.5125 4.71875,12.5890625 L4.71875,13.796875 C4.71875,13.9015625 4.8390625,13.959375 4.9203125,13.8953125 L11.9640625,8.39375 C12.2203125,8.19375 12.2203125,7.80625 11.9640625,7.60625 Z" id="路径" fill="#FFFFFF"></path>
                    </g>
                </g>
            </g>
        </g>
    </g>
</svg>